<svg viewBox="0 0 64 64" xmlns="http://www.w3.org/2000/svg"><rect fill="#edf4f8" height="64" rx="14" width="64"/><g stroke="#fff" stroke-opacity=".6"><g fill="#f5a0c0" transform="translate(32 33)"><ellipse cy="-15" rx="6" ry="14"/><ellipse cy="-15" rx="6" ry="14" transform="matrix(.70710678 .70710678 -.70710678 .70710678 0 0)"/><ellipse cy="-15" rx="6" ry="14" transform="rotate(90)"/><ellipse cy="-15" rx="6" ry="14" transform="matrix(-.70710678 .70710678 -.70710678 -.70710678 0 0)"/><ellipse cy="-15" rx="6" ry="14" transform="scale(-1)"/><ellipse cy="-15" rx="6" ry="14" transform="matrix(-.70710678 -.70710678 .70710678 -.70710678 0 0)"/><ellipse cy="-15" rx="6" ry="14" transform="matrix(-0 -1 1 -0 0 0)"/><ellipse cy="-15" rx="6" ry="14" transform="matrix(.70710678 -.70710678 .70710678 .70710678 0 0)"/></g><circle cx="32" cy="33" fill="#f8d040" r="7" stroke="none"/></g></svg>